<svg xmlns="http://www.w3.org/2000/svg" xmlns:xlink="http://www.w3.org/1999/xlink" width="500" zoomAndPan="magnify" viewBox="0 0 375 374.999991" height="500" preserveAspectRatio="xMidYMid meet" version="1.2"><g id="75b5b0226c"><path style=" stroke:none;fill-rule:evenodd;fill:#ff66c4;fill-opacity:1;" d="M 139.832031 55.394531 C 137.820312 47.9375 133.046875 41.972656 126.859375 38.394531 L 126.785156 38.394531 C 120.597656 34.816406 113.066406 33.625 105.613281 35.636719 C 98.15625 37.648438 92.191406 42.421875 88.613281 48.609375 L 88.613281 48.683594 C 85.035156 54.871094 83.84375 62.402344 85.855469 69.855469 C 87.867188 77.3125 92.714844 83.273438 98.902344 86.855469 C 105.089844 90.433594 112.621094 91.625 120.074219 89.613281 C 127.53125 87.597656 133.496094 82.753906 137.074219 76.566406 C 140.652344 70.453125 141.84375 62.847656 139.832031 55.394531 Z M 191.347656 117.867188 C 200.515625 109.21875 211.105469 102.585938 222.4375 98.1875 C 218.1875 92.371094 214.90625 85.660156 212.894531 78.28125 C 208.570312 62.175781 211.253906 45.851562 218.933594 32.429688 C 226.683594 19.085938 239.507812 8.648438 255.613281 4.324219 C 271.714844 0 288.042969 2.609375 301.460938 10.363281 C 314.882812 18.117188 325.320312 30.9375 329.640625 46.96875 C 333.964844 63.070312 331.28125 79.398438 323.605469 92.816406 C 320.472656 98.261719 316.519531 103.179688 311.824219 107.355469 C 333.296875 121.445312 347.535156 142.695312 353.203125 166.101562 C 358.792969 189.140625 356.035156 214.265625 343.734375 236.480469 C 334.042969 256.984375 311.453125 280.542969 286.253906 302.160156 C 245.25 337.277344 195.222656 368.886719 185.382812 372.464844 L 178.300781 375 L 171.738281 371.199219 C 161.898438 365.53125 131.554688 346.371094 101.511719 319.011719 C 113.066406 316.101562 123.726562 310.808594 133.046875 303.652344 C 151.910156 319.683594 169.800781 331.910156 180.613281 338.691406 C 196.191406 329.820312 232.796875 305.144531 265.078125 277.410156 C 277.828125 266.527344 289.609375 255.34375 298.851562 244.832031 C 259.042969 238.417969 234.140625 210.238281 208.046875 180.789062 C 192.765625 163.492188 176.957031 145.675781 157.648438 133.226562 C 145.347656 126.367188 131.554688 123.90625 118.210938 125.472656 C 104.71875 127.039062 91.746094 132.851562 81.308594 142.621094 C 73.703125 149.777344 68.113281 158.351562 64.757812 167.667969 C 61.253906 177.210938 59.984375 187.425781 61.105469 197.566406 C 63.714844 221.199219 77.132812 244.382812 94.28125 265.109375 C 95.023438 266.003906 95.769531 266.898438 96.589844 267.792969 C 107.996094 282.40625 109.9375 302.386719 101.4375 319.011719 C 91.296875 309.839844 81.234375 299.703125 71.988281 288.816406 C 49.996094 263.171875 32.402344 233.199219 28.824219 201.144531 C 27.109375 186.007812 29.046875 170.726562 34.265625 156.5625 C 39.410156 142.621094 47.757812 129.796875 59.089844 119.136719 C 63.488281 115.035156 68.1875 111.382812 73.105469 108.175781 C 64.382812 100.570312 57.75 90.359375 54.46875 78.28125 C 50.144531 62.175781 52.828125 45.851562 60.507812 32.429688 C 68.261719 19.011719 81.082031 8.574219 97.113281 4.25 C 113.289062 0 129.617188 2.609375 143.039062 10.363281 C 156.457031 18.117188 166.894531 30.9375 171.21875 46.96875 C 175.542969 63.070312 172.859375 79.398438 165.179688 92.816406 C 163.910156 94.980469 162.496094 97.140625 161.003906 99.15625 C 165.550781 100.871094 169.949219 103.03125 174.273438 105.492188 L 175.019531 105.9375 C 180.761719 109.59375 186.128906 113.617188 191.347656 117.867188 Z M 298.257812 55.394531 C 296.242188 47.9375 291.472656 41.972656 285.285156 38.394531 L 285.210938 38.394531 C 279.019531 34.816406 271.492188 33.625 264.035156 35.636719 C 256.582031 37.648438 250.617188 42.496094 247.039062 48.683594 C 243.460938 54.871094 242.265625 62.402344 244.28125 69.855469 L 244.128906 69.929688 L 244.28125 69.855469 C 246.292969 77.3125 251.0625 83.273438 257.25 86.855469 L 257.328125 86.855469 C 263.515625 90.433594 271.042969 91.625 278.5 89.613281 C 285.953125 87.597656 291.917969 82.828125 295.496094 76.640625 L 295.496094 76.566406 C 299 70.453125 300.195312 62.847656 298.257812 55.394531 Z M 120.074219 220.824219 C 120.074219 213.964844 114.558594 208.449219 107.699219 208.449219 C 100.839844 208.449219 95.324219 213.964844 95.324219 220.824219 C 95.324219 227.683594 100.839844 233.199219 107.699219 233.199219 C 114.558594 233.199219 120.074219 227.609375 120.074219 220.824219 Z M 205.140625 220.824219 C 205.140625 213.964844 199.621094 208.449219 192.765625 208.449219 C 185.90625 208.449219 180.386719 213.964844 180.386719 220.824219 C 180.386719 227.683594 185.90625 233.199219 192.765625 233.199219 C 199.621094 233.199219 205.140625 227.609375 205.140625 220.824219 Z M 162.570312 220.824219 C 162.570312 213.964844 157.054688 208.449219 150.195312 208.449219 C 143.335938 208.449219 137.820312 213.964844 137.820312 220.824219 C 137.820312 227.683594 143.335938 233.199219 150.195312 233.199219 C 157.054688 233.199219 162.570312 227.609375 162.570312 220.824219 Z M 246.890625 124.875 C 235.183594 126.886719 224.074219 132.105469 214.90625 140.234375 C 220.871094 146.570312 226.609375 153.058594 232.277344 159.394531 C 249.199219 178.554688 265.527344 196.96875 286.253906 206.660156 C 319.949219 222.464844 329.121094 204.421875 321.664062 173.707031 C 317.863281 158.125 308.394531 143.960938 294.007812 134.492188 C 279.542969 125.097656 262.695312 122.117188 246.890625 124.875 Z M 246.890625 124.875 "/></g></svg>